<svg width="185.5800048828125px" height="122px" xmlns="http://www.w3.org/2000/svg" viewBox="157.20999755859376 14 185.5800048828125 122" style="background: rgba(0, 0, 0, 0);" preserveAspectRatio="xMidYMid"><defs><filter id="editing-extrusion" x="-100%" y="-100%" width="300%" height="300%"><feFlood result="color1" flood-color="#444"></feFlood><feConvolveMatrix order="8,8" divisor="1" kernelMatrix="1 0 0 0 0 0 0 0 0 1 0 0 0 0 0 0 0 0 1 0 0 0 0 0 0 0 0 1 0 0 0 0 0 0 0 0 1 0 0 0 0 0 0 0 0 1 0 0 0 0 0 0 0 0 1 0 0 0 0 0 0 0 0 1" in="SourceAlpha" result="extrude"></feConvolveMatrix><feComposite in="color1" in2="extrude" result="comp-extrude" operator="in"></feComposite><feOffset dx="4" dy="4" in="comp-extrude" result="offset-extrude"></feOffset><feMerge><feMergeNode in="offset-extrude"></feMergeNode><feMergeNode in="SourceGraphic"></feMergeNode></feMerge></filter></defs><g filter="url(#editing-extrusion)"><g transform="translate(188.57937693595886, 98.75)"><path d="M2.11-6.40L2.11-6.40L2.11-6.40Q2.11-8.13 3.01-12.48L3.01-12.48L6.40-29.76L2.62-29.76L2.88-31.68L2.88-31.68Q10.56-33.98 17.98-39.62L17.98-39.62L21.06-39.62L19.52-32.64L24.51-32.64L23.94-29.76L19.01-29.76L15.74-12.48L15.74-12.48Q14.91-8.51 14.91-7.17L14.91-7.17L14.91-7.17Q14.91-4.10 17.60-3.46L17.60-3.46L17.60-3.46Q16.96-1.28 14.66 0L14.66 0L14.66 0Q12.35 1.28 9.09 1.28L9.09 1.28L9.09 1.28Q5.82 1.28 3.97-0.77L3.97-0.77L3.97-0.77Q2.11-2.82 2.11-6.40ZM39.55-3.52L39.55-3.52L39.55-3.52Q37.57 1.28 31.23 1.28L31.23 1.28L31.23 1.28Q27.97 1.28 25.92-0.96L25.92-0.96L25.92-0.96Q24.19-2.94 24.19-4.93L24.19-4.93L24.19-4.93Q24.19-10.11 26.56-20.22L26.56-20.22L28.93-32.64L41.92-33.92L38.02-13.70L38.02-13.70Q36.93-8.96 36.93-7.30L36.93-7.30L36.93-7.30Q36.93-3.65 39.55-3.52ZM30.08-41.54L30.08-41.54L30.08-41.54Q30.08-44.03 32.16-45.38L32.16-45.38L32.16-45.38Q34.24-46.72 37.25-46.72L37.25-46.72L37.25-46.72Q40.26-46.72 42.08-45.38L42.08-45.38L42.08-45.38Q43.90-44.03 43.90-41.54L43.90-41.54L43.90-41.54Q43.90-39.04 41.89-37.76L41.89-37.76L41.89-37.76Q39.87-36.48 36.86-36.48L36.86-36.48L36.86-36.48Q33.86-36.48 31.97-37.76L31.97-37.76L31.97-37.76Q30.08-39.04 30.08-41.54ZM46.02-6.40L46.02-6.40L46.02-6.40Q46.02-8.13 46.91-12.48L46.91-12.48L50.30-29.76L46.53-29.76L46.78-31.68L46.78-31.68Q54.46-33.98 61.89-39.62L61.89-39.62L64.96-39.62L63.42-32.64L68.42-32.64L67.84-29.76L62.91-29.76L59.65-12.48L59.65-12.48Q58.82-8.51 58.82-7.17L58.82-7.17L58.82-7.17Q58.82-4.10 61.50-3.46L61.50-3.46L61.50-3.46Q60.86-1.28 58.56 0L58.56 0L58.56 0Q56.26 1.28 52.99 1.28L52.99 1.28L52.99 1.28Q49.73 1.28 47.87-0.77L47.87-0.77L47.87-0.77Q46.02-2.82 46.02-6.40ZM83.39-3.52L83.39-3.52L83.39-3.52Q81.41 1.28 75.07 1.28L75.07 1.28L75.07 1.28Q71.87 1.28 69.82-0.96L69.82-0.96L69.82-0.96Q68.16-2.82 68.16-4.93L68.16-4.93L68.16-4.93Q68.16-9.73 70.40-20.22L70.40-20.22L75.07-44.80L88.06-46.08L81.86-13.70L81.86-13.70Q80.77-8.96 80.77-7.30L80.77-7.30L80.77-7.30Q80.77-3.65 83.39-3.52ZM114.75-10.82L114.75-10.82L114.75-10.82Q116.35-9.73 116.35-7.33L116.35-7.33L116.35-7.33Q116.35-4.93 115.14-3.39L115.14-3.39L115.14-3.39Q113.92-1.86 111.94-0.83L111.94-0.83L111.94-0.83Q107.84 1.28 103.42 1.28L103.42 1.28L103.42 1.28Q99.01 1.28 96.42 0.32L96.42 0.32L96.42 0.32Q93.82-0.64 92.10-2.43L92.10-2.43L92.10-2.43Q88.70-5.82 88.70-12.03L88.70-12.03L88.70-12.03Q88.70-21.70 93.95-27.58L93.95-27.58L93.95-27.58Q99.58-33.92 109.38-33.92L109.38-33.92L109.38-33.92Q115.46-33.92 118.46-31.36L118.46-31.36L118.46-31.36Q120.70-29.44 120.70-26.30L120.70-26.30L120.70-26.30Q120.70-15.04 101.25-15.04L101.25-15.04L101.25-15.04Q100.99-13.38 100.99-11.97L100.99-11.97L100.99-11.97Q100.99-9.02 102.30-7.90L102.30-7.90L102.30-7.90Q103.62-6.78 106.05-6.78L106.05-6.78L106.05-6.78Q108.48-6.78 111.07-7.90L111.07-7.90L111.07-7.90Q113.66-9.02 114.75-10.82ZM101.70-17.79L101.70-17.79L101.70-17.79Q106.24-17.79 108.86-20.61L108.86-20.61L108.86-20.61Q111.49-23.30 111.49-27.58L111.49-27.58L111.49-27.58Q111.49-29.06 110.94-29.86L110.94-29.86L110.94-29.86Q110.40-30.66 109.31-30.66L109.31-30.66L109.31-30.66Q108.22-30.66 107.30-30.24L107.30-30.24L107.30-30.24Q106.37-29.82 105.41-28.42L105.41-28.42L105.41-28.42Q103.04-25.22 101.70-17.79Z" fill="#ccc"></path></g></g><style>text {
  font-size: 64px;
  font-family: Arial Black;
  dominant-baseline: central;
  text-anchor: middle;
}</style></svg>