<svg class="lds-spinner" width="70px"  height="70px"  xmlns="http://www.w3.org/2000/svg" xmlns:xlink="http://www.w3.org/1999/xlink" viewBox="0 0 100 100" preserveAspectRatio="xMidYMid" style="background-image: none; background-position: initial initial; background-repeat: initial initial;"><g transform="rotate(0 50 50)">
  <rect x="47" y="15.5" rx="12.22" ry="4.03" width="6" height="15" fill="#FFFFFF">
    <animate attributeName="opacity" values="1;0" times="0;1" dur="0.9s" begin="-0.8099999999999999s" repeatCount="indefinite"></animate>
  </rect>
</g><g transform="rotate(36 50 50)">
  <rect x="47" y="15.5" rx="12.22" ry="4.03" width="6" height="15" fill="#FFFFFF">
    <animate attributeName="opacity" values="1;0" times="0;1" dur="0.9s" begin="-0.72s" repeatCount="indefinite"></animate>
  </rect>
</g><g transform="rotate(72 50 50)">
  <rect x="47" y="15.5" rx="12.22" ry="4.03" width="6" height="15" fill="#FFFFFF">
    <animate attributeName="opacity" values="1;0" times="0;1" dur="0.9s" begin="-0.63s" repeatCount="indefinite"></animate>
  </rect>
</g><g transform="rotate(108 50 50)">
  <rect x="47" y="15.5" rx="12.22" ry="4.03" width="6" height="15" fill="#FFFFFF">
    <animate attributeName="opacity" values="1;0" times="0;1" dur="0.9s" begin="-0.54s" repeatCount="indefinite"></animate>
  </rect>
</g><g transform="rotate(144 50 50)">
  <rect x="47" y="15.5" rx="12.22" ry="4.03" width="6" height="15" fill="#FFFFFF">
    <animate attributeName="opacity" values="1;0" times="0;1" dur="0.9s" begin="-0.45s" repeatCount="indefinite"></animate>
  </rect>
</g><g transform="rotate(180 50 50)">
  <rect x="47" y="15.5" rx="12.22" ry="4.03" width="6" height="15" fill="#FFFFFF">
    <animate attributeName="opacity" values="1;0" times="0;1" dur="0.9s" begin="-0.36s" repeatCount="indefinite"></animate>
  </rect>
</g><g transform="rotate(216 50 50)">
  <rect x="47" y="15.5" rx="12.22" ry="4.03" width="6" height="15" fill="#FFFFFF">
    <animate attributeName="opacity" values="1;0" times="0;1" dur="0.9s" begin="-0.27s" repeatCount="indefinite"></animate>
  </rect>
</g><g transform="rotate(252 50 50)">
  <rect x="47" y="15.5" rx="12.22" ry="4.03" width="6" height="15" fill="#FFFFFF">
    <animate attributeName="opacity" values="1;0" times="0;1" dur="0.9s" begin="-0.18s" repeatCount="indefinite"></animate>
  </rect>
</g><g transform="rotate(288 50 50)">
  <rect x="47" y="15.5" rx="12.22" ry="4.03" width="6" height="15" fill="#FFFFFF">
    <animate attributeName="opacity" values="1;0" times="0;1" dur="0.9s" begin="-0.09s" repeatCount="indefinite"></animate>
  </rect>
</g><g transform="rotate(324 50 50)">
  <rect x="47" y="15.5" rx="12.22" ry="4.03" width="6" height="15" fill="#FFFFFF">
    <animate attributeName="opacity" values="1;0" times="0;1" dur="0.9s" begin="0s" repeatCount="indefinite"></animate>
  </rect>
</g></svg>
