<?xml version="1.0" encoding="utf-8"?>
<!-- Svg Vector Icons : http://www.onlinewebfonts.com/icon -->
<!DOCTYPE svg PUBLIC "-//W3C//DTD SVG 1.1//EN" "http://www.w3.org/Graphics/SVG/1.1/DTD/svg11.dtd">
<svg version="1.1" xmlns="http://www.w3.org/2000/svg" xmlns:xlink="http://www.w3.org/1999/xlink" x="0px" y="0px" viewBox="0 0 1000 1000" enable-background="new 0 0 1000 1000" xml:space="preserve">
<metadata> Svg Vector Icons : http://www.onlinewebfonts.com/icon </metadata>
<g><g transform="translate(0.000000,511.000000) scale(0.100000,-0.100000)"><path d="M1205.3,4953c-54.3-54.3-57-81.4-57-705.2v-651l-217-151.9l-217-151.9V-715.9c0-3352.6,5.4-4014.4,38-4041.5c51.5-43.4,8443.8-43.4,8495.3,0c32.5,27.1,38,689,38,4041.5V3293l-208.9,143.8l-211.6,143.8l-13.6,670c-8.1,393.3-24.4,680.8-40.7,697.1c-16.3,16.3-1405,32.6-3786.5,43.4l-3762.1,19L1205.3,4953z M8230.5,4551.6c-75.9-86.8-198-225.1-273.9-306.5l-132.9-149.2l-2.7-371.6V3350H5000H2179.1v374.3l-2.7,371.6L2076,4209.8c-54.2,59.7-179,198-274,303.8l-170.9,192.6H5000h3368.8L8230.5,4551.6z M1796.6,4068.8c2.7-24.4-35.3-51.5-274-211.6l-75.9-51.5v333.6v333.6l176.3-187.2C1718,4180,1796.6,4085.1,1796.6,4068.8z M8547.8,3973.8l-8.1-165.5L8371.5,3925c-94.9,65.1-170.9,127.5-170.9,138.3c0,13.6,76,108.5,170.9,211.6l168.2,187.2l8.1-162.7C8553.3,4209.8,8553.3,4063.4,8547.8,3973.8z M1872.6,3358.1c-8.1-5.4-132.9-5.4-279.4-2.7l-268.5,8.1l271.2,192.6l271.2,189.9l8.1-187.2C1880.7,3455.8,1878,3366.3,1872.6,3358.1z M8406.8,3553.4c141.1-100.4,255-184.4,255-189.9c0-8.1-122.1-13.6-271.3-13.6h-271.2v189.9c0,105.8,8.1,189.9,16.3,189.9C8143.7,3729.7,8265.8,3651.1,8406.8,3553.4z M9000.8-718.7v-3783.8H5000H999.2L991-745.8c-2.7,2066.9,0,3773,8.1,3789.3c8.1,27.1,868,32.5,4006.3,27.1l3995.4-5.4V-718.7z"/><path d="M3068.7,2357.2c-149.2-46.1-301.1-184.4-360.8-328.2c-122.1-287.5,35.3-675.4,314.6-773l73.2-24.4l13.6-697.1c13.6-786.6,27.1-873.4,214.3-1253.2c89.5-184.4,157.3-276.7,344.5-461.1c390.6-387.9,789.3-556,1331.8-556c358.1,0,583.2,57,908.7,225.1c284.8,149.2,618.4,493.7,767.6,792c184.4,374.3,200.7,466.6,214.3,1253.2l13.6,697.1l73.3,24.4c309.2,108.5,444.8,507.2,279.4,821.9c-203.4,390.6-756.8,417.7-1000.9,48.8c-94.9-143.8-116.6-379.7-51.5-553.3c51.5-130.2,195.3-274,320.1-317.4l75.9-27.1V588.8c0-477.4-10.9-689-40.7-816.4c-130.2-550.6-613-1036.2-1169.1-1179.9c-211.6-54.3-575-57-778.5-2.7C4050.6-1263.9,3570.5-781,3440.4-227.7c-29.8,127.5-40.7,339-40.7,816.4v640.1l75.9,27.1c227.9,78.7,371.6,325.5,352.6,599.4C3801.1,2232.5,3434.9,2473.9,3068.7,2357.2z M3418.7,2048c162.7-97.7,181.7-344.5,32.5-477.4c-48.8-46.1-51.5-43.4-51.5,111.2c0,176.3-48.8,257.7-151.9,257.7c-92.2,0-146.5-97.7-146.5-268.5c0-146.5,0-146.5-54.2-97.7c-29.8,27.1-67.8,94.9-84.1,149.2c-24.4,84.1-21.7,119.3,16.3,200.7C3060.6,2096.8,3250.5,2151.1,3418.7,2048z M6896,2061.6c43.4-21.7,97.6-84.1,124.8-138.3c38-81.4,40.7-116.6,16.3-200.7c-16.3-54.2-54.3-122.1-84.1-149.2c-54.2-48.8-54.2-48.8-54.2,97.7c0,168.2-54.3,268.5-141.1,268.5c-111.2,0-157.3-75.9-157.3-252.3c0-160-2.7-162.7-51.5-116.6c-92.2,84.1-122.1,195.3-86.8,317.4C6516.2,2072.4,6722.4,2153.8,6896,2061.6z"/></g></g>
</svg>