<?xml version="1.0" encoding="utf-8"?>
<!-- Svg Vector Icons : http://www.onlinewebfonts.com/icon -->
<!DOCTYPE svg PUBLIC "-//W3C//DTD SVG 1.1//EN" "http://www.w3.org/Graphics/SVG/1.1/DTD/svg11.dtd">
<svg version="1.1" xmlns="http://www.w3.org/2000/svg" xmlns:xlink="http://www.w3.org/1999/xlink" x="0px" y="0px" viewBox="0 0 1000 1000" enable-background="new 0 0 1000 1000" xml:space="preserve">
<metadata> Svg Vector Icons : http://www.onlinewebfonts.com/icon </metadata>
<g><path d="M520.5,882.3C357.1,764.1,151.6,621.9,102.9,413.7c-26.3-112.3,40.3-220.4,139-269.8c132.8-66.5,235.4,63.8,241,181.6c0.8,16.8,79.9,14.7,79.2-0.5C550.5,82.5,249.3,50,95.3,186.3c-271.8,240.6,177.6,578.6,348.9,702.5C462.3,901.7,525,885.6,520.5,882.3L520.5,882.3z"/><path d="M564.2,378.7c66.9-66.3,139.9-134.9,231.6-164c169.3-53.7,120.8,170.2,86,237.9c-71,138-198.4,246.3-311.2,349.4c-22.5,20.5,38.9,69.7,63.7,47c140.8-128.6,386.8-321.6,352.5-538.4c-13.6-86.2-95.8-151.9-178.5-161.5C691,135.5,575.5,257.4,500.6,331.7C478.6,353.5,540.4,402.3,564.2,378.7L564.2,378.7z"/></g>
</svg>