<?xml version="1.0" encoding="utf-8"?>
<!-- Svg Vector Icons : http://www.onlinewebfonts.com/icon -->
<!DOCTYPE svg PUBLIC "-//W3C//DTD SVG 1.1//EN" "http://www.w3.org/Graphics/SVG/1.1/DTD/svg11.dtd">
<svg version="1.1" xmlns="http://www.w3.org/2000/svg" xmlns:xlink="http://www.w3.org/1999/xlink" x="0px" y="0px" viewBox="0 0 1000 1000" enable-background="new 0 0 1000 1000" xml:space="preserve">
<metadata> Svg Vector Icons : http://www.onlinewebfonts.com/icon </metadata>
<g><path d="M500,990C229.8,990,10,770.2,10,500C10,229.8,229.8,10,500,10c270.2,0,490,219.7,490,490C990,770.2,770.2,990,500,990z M500,43.6C248.4,43.6,43.6,248.3,43.6,500c0,251.7,204.8,456.4,456.4,456.4c251.7,0,456.4-204.7,456.4-456.4C956.4,248.3,751.7,43.6,500,43.6z"/><path d="M500,990c-119.2,0-234.1-43.4-323.6-122.2L164,856.9l10.6-12.6c31.4-37.3,86.9-68.4,156.4-87.5c24.9-9.9,36.9-16.4,45.8-25.4c9.6-9.6,14.9-18.6,16.7-28.4c1.2-6.8,0.9-42.6-0.1-74.3c-17.2-19.6-32.2-48.6-46.6-90.5c-14.8-7.7-28-26.7-32-47.6c-4.2-22.4-1.8-41.2,6-52.5c-18.3-107.6-6.5-187.6,35.4-237.6c32.5-39.1,82.4-59,148.2-59h5.9c54.8,0,67.4,11.5,79.2,27.6c2.3,3.1,4.2,5.6,6.9,8c30.3,0,55.4,12.1,72.7,35.1c32.8,43.6,36.9,126.8,11,224.3c9.1,11.2,11.7,31.3,6.4,55.2c-5,22.2-20.7,42.2-36.5,48.2c-11.7,38.4-23.6,67.5-42.4,89.4v70.2c2.1,15.5,8,21.2,18.7,31.6l7.2,7.1c6.7,5.3,12.5,8.1,39.1,19.9c66.5,18.3,121.5,49.3,152.7,86.2l10.6,12.6l-12.3,10.9C734.1,946.6,619.1,990,500,990z M211.9,853.8C293.2,920,394.8,956.4,500,956.4c105.2,0,206.8-36.3,288.1-102.5c-28.3-26.6-72.5-49-126.7-64.2c-29.6-12.7-38.7-17-50.6-26.7l-7.8-7.7c-12.4-12-25.1-24.4-28.7-53.7l-0.1-85.4l4.6-4.9c18.7-19.4,30.4-50.8,42.5-92.1l6.8-23.3l13.7,10.2c4-3.7,9.9-11.5,12.1-21.6c2.8-12.4,2.1-21.3,1.1-25.3l-12.8-4l2.7-16.1c26-91.1,25.2-170.3-2.3-206.6c-11-14.7-26.1-21.8-46-21.8l-9.1,0.4l-4.3-2.6c-11-6.5-16.4-14-20.5-19.4c-5.7-7.8-10.1-14-52.1-14l-5.6,0.1c-55.6,0-96.8,15.7-122.7,46.8c-36.3,43.5-45.2,117.2-26.5,219.2l3.1,16.7l-11.2,1.9c-1.1,4.2-1.8,12.7,0.4,24.6c2.6,13.6,11.6,23.1,14.6,24.5l12.7-0.6l1,11.7c14.8,44.8,29.4,73.4,45.9,90.2l4.6,4.6l0.3,6.6c0.6,17,2.3,73.6-0.3,87.9c-3.1,16.6-11.6,31.7-26,46c-14.3,14.3-31.7,22.8-59,33.5C285.3,804.3,240.5,827,211.9,853.8z"/></g>
</svg>